<?xml version="1.0" encoding="UTF-8" standalone="no"?>
<!-- Created with Inkscape (http://www.inkscape.org/) -->

<svg
   width="448.96951"
   height="55.025249"
   viewBox="0 0 118.78985 14.558763"
   version="1.1"
   id="svg5"
   inkscape:version="1.2.1 (9c6d41e410, 2022-07-14)"
   sodipodi:docname="header.svg"
   xmlns:inkscape="http://www.inkscape.org/namespaces/inkscape"
   xmlns:sodipodi="http://sodipodi.sourceforge.net/DTD/sodipodi-0.dtd"
   xmlns="http://www.w3.org/2000/svg"
   xmlns:svg="http://www.w3.org/2000/svg">
  <sodipodi:namedview
     id="namedview7"
     pagecolor="#ffffff"
     bordercolor="#111111"
     borderopacity="1"
     inkscape:showpageshadow="0"
     inkscape:pageopacity="0"
     inkscape:pagecheckerboard="1"
     inkscape:deskcolor="#d1d1d1"
     inkscape:document-units="mm"
     showgrid="false"
     inkscape:zoom="4.1121712"
     inkscape:cx="166.57867"
     inkscape:cy="22.007839"
     inkscape:window-width="1920"
     inkscape:window-height="996"
     inkscape:window-x="-8"
     inkscape:window-y="-8"
     inkscape:window-maximized="1"
     inkscape:current-layer="text425" />
  <defs
     id="defs2" />
  <g
     inkscape:label="Ebene 1"
     inkscape:groupmode="layer"
     id="layer1"
     transform="translate(-31.020542,-135.6523)">
    <g
       aria-label="Query Builder"
       id="text236-20-3"
       style="font-size:13.5479px;line-height:1.25;font-family:'Isabelle Layne';-inkscape-font-specification:'Isabelle Layne';fill:#363636;stroke-width:0.264583">
      <path
         d="m 103.49015,145.60144 q -0.56901,0.81287 -1.43607,0.78578 -1.25996,-0.0406 -1.85607,-1.6122 -0.501269,-1.34125 -0.392885,-3.29214 0.121931,-1.88316 0.731585,-3.19731 0.71804,-1.50381 1.76123,-1.40898 h 0.0136 0.0271 q 0.44708,0.0406 0.82642,0.51482 0.32515,0.40644 0.58256,1.11093 0.48773,1.39543 0.54192,3.2244 0.0542,1.9238 -0.44708,3.18376 -0.0813,0.21676 -0.17612,0.39288 0.43353,0.56902 0.6232,0.77223 0.10838,0.12194 -0.0135,0.23032 -0.12193,0.10838 -0.23031,-0.0135 -0.20322,-0.21677 -0.55547,-0.69094 z m -1.21931,-8.3997 q -0.81287,-0.0813 -1.43608,1.21931 -0.5961,1.25996 -0.70449,3.08892 -0.10838,1.85606 0.37935,3.14312 0.52836,1.38188 1.54446,1.40898 0.74513,0.0271 1.21931,-0.73159 -0.32515,-0.41998 -0.59611,-0.66385 -0.12193,-0.10838 -0.0135,-0.23031 0.10838,-0.12193 0.23032,-0.0135 0.25741,0.23032 0.55546,0.59611 0.0542,-0.10838 0.0948,-0.23032 0.47418,-1.19221 0.41999,-3.04827 -0.0542,-1.78833 -0.52837,-3.12957 -0.23031,-0.6503 -0.52837,-1.01609 -0.2845,-0.36579 -0.5961,-0.39289 z"
         id="path368" />
      <path
         d="m 105.67137,139.69455 q 0,0.3387 -0.0542,1.3277 -0.0406,0.98899 -0.0406,1.51736 -0.0406,1.91026 0.25741,2.6012 0.20322,0.47418 0.55546,0.70449 0.3658,0.23031 0.73159,0.20322 0.37934,-0.0271 0.66385,-0.3116 0.2845,-0.28451 0.37934,-0.79933 v -5.25658 q 0,-0.16258 0.16257,-0.16258 0.16258,0 0.16258,0.16258 v 5.27013 1.2735 q 0,0.16258 -0.16258,0.16258 -0.16257,0 -0.16257,-0.16258 v -0.43353 q -0.37934,0.54191 -1.0161,0.58256 -0.48772,0.0406 -0.9348,-0.24386 -0.43353,-0.29806 -0.6774,-0.85352 -0.32514,-0.74514 -0.2845,-2.75022 0,-0.52837 0.0406,-1.50382 0.0542,-0.989 0.0542,-1.3277 0,-0.16257 0.16258,-0.16257 0.16257,0 0.16257,0.16257 z"
         id="path370" />
      <path
         d="m 109.61382,141.86222 q 0.17612,0 1.36833,0.0406 0.78578,0.0271 1.28705,0 -0.0406,-0.75868 -0.18967,-1.2735 -0.23031,-0.86707 -0.74513,-0.93481 -0.51482,-0.0813 -0.92126,0.32515 -0.55546,0.54192 -0.78578,1.74768 z m 2.81796,0.35224 q -0.56901,0.0406 -1.44963,0.0136 -1.31414,-0.0406 -1.42253,-0.0406 -0.10838,0.81287 -0.0542,1.5851 0.0677,0.90771 0.50128,1.51737 0.43353,0.60965 0.98899,0.74513 0.54192,0.13548 0.94836,-0.21677 0.47417,-0.41998 0.5961,-1.36833 0.0271,-0.16258 0.17613,-0.13548 0.16257,0.0136 0.14902,0.16257 -0.13548,1.08383 -0.70449,1.58511 -0.54191,0.47417 -1.24641,0.29805 -0.66384,-0.17612 -1.16511,-0.86706 -0.50128,-0.69095 -0.56902,-1.69349 -0.0677,-1.07029 0.12193,-2.09993 0.25741,-1.3006 0.89417,-1.9238 0.51482,-0.50127 1.19221,-0.40644 0.70449,0.10839 1.00255,1.16512 0.17612,0.59611 0.20321,1.50382 0,0.0677 -0.0542,0.12193 -0.0406,0.0542 -0.10838,0.0542 z"
         id="path372" />
      <path
         d="m 114.01687,141.17127 q -0.0271,-0.0542 0,-0.12193 v -0.0135 -1.38189 q 0,-0.16257 0.16258,-0.16257 0.16257,0 0.16257,0.16257 v 0.63675 q 0.17612,-0.3116 0.3658,-0.51482 0.29805,-0.3116 0.63675,-0.3387 0.39289,-0.0406 0.77223,0.35225 0.33869,0.35224 0.43353,1.05674 0.0406,0.32514 0.0406,1.09738 0,0.16257 -0.16257,0.16257 -0.16258,0 -0.16258,-0.16257 0,-0.75869 -0.0406,-1.05674 -0.0813,-0.59611 -0.35225,-0.88061 -0.25741,-0.27096 -0.50127,-0.24387 -0.21676,0.0135 -0.43353,0.24387 -0.36579,0.37934 -0.59611,1.08383 v 5.1211 q 0,0.16258 -0.16257,0.16258 -0.16258,0 -0.16258,-0.16258 z"
         id="path374" />
      <path
         d="m 118.98895,146.12981 q -0.27096,-1.0161 -0.77223,-3.15666 -0.44708,-1.91026 -0.81287,-3.2515 -0.0406,-0.14903 0.10838,-0.18967 0.16257,-0.0542 0.21677,0.10838 0.29805,1.07029 0.75868,3.07538 0.47418,2.00508 0.67739,2.80441 l 1.65285,-5.83914 q 0.0542,-0.16258 0.20322,-0.10839 0.16257,0.0406 0.12193,0.18967 l -2.58765,9.11774 q -0.0542,0.16258 -0.21677,0.10838 -0.14902,-0.0406 -0.10838,-0.18967 z"
         id="path376" />
      <path
         d="m 126.69768,137.24238 v 3.07538 q 1.16512,-0.32515 1.67994,-0.73159 0.44708,-0.37934 0.51482,-1.01609 0.0677,-0.6503 -0.35224,-1.05674 -0.3116,-0.2845 -0.93481,-0.32515 -0.37934,-0.0135 -0.90771,0.0542 z m 0,3.46827 v 5.27013 q 0.59611,0 1.0161,-0.0813 0.41998,-0.0948 0.82642,-0.35224 0.73158,-0.47418 1.02964,-1.39544 0.3116,-0.9348 0.0813,-1.82896 -0.24387,-0.93481 -1.00255,-1.40899 -0.74513,-0.48772 -1.93735,-0.20321 z m -0.24386,-3.76632 q 0.71804,-0.0948 1.16512,-0.0813 0.74514,0.0406 1.13802,0.40644 0.55547,0.54192 0.46063,1.32769 -0.0813,0.78578 -0.6503,1.23286 -0.35224,0.27096 -0.78577,0.47418 0.86706,0.0813 1.42253,0.60965 0.55546,0.52837 0.75868,1.3277 0.25741,0.989 -0.0813,2.01864 -0.3387,1.01609 -1.17867,1.558 -0.33869,0.21677 -0.74513,0.3387 -0.39289,0.10839 -0.69094,0.13548 -0.28451,0.0135 -0.75869,0.0135 -0.0813,0 -0.13548,-0.0677 -0.0271,-0.0406 -0.0271,-0.0948 0,-0.0542 0.0271,-0.0948 v -8.81968 q -0.0406,-0.0406 -0.0542,-0.0948 -0.0271,-0.16257 0.13548,-0.18967 z"
         id="path378" />
      <path
         d="m 131.48008,139.69455 q 0,0.3387 -0.0542,1.3277 -0.0406,0.98899 -0.0406,1.51736 -0.0406,1.91026 0.25741,2.6012 0.20322,0.47418 0.55546,0.70449 0.36579,0.23031 0.73159,0.20322 0.37934,-0.0271 0.66384,-0.3116 0.28451,-0.28451 0.37935,-0.79933 v -5.25658 q 0,-0.16258 0.16257,-0.16258 0.16258,0 0.16258,0.16258 v 5.27013 1.2735 q 0,0.16258 -0.16258,0.16258 -0.16257,0 -0.16257,-0.16258 v -0.43353 q -0.37935,0.54191 -1.0161,0.58256 -0.48772,0.0406 -0.9348,-0.24386 -0.43353,-0.29806 -0.6774,-0.85352 -0.32515,-0.74514 -0.2845,-2.75022 0,-0.52837 0.0406,-1.50382 0.0542,-0.989 0.0542,-1.3277 0,-0.16257 0.16258,-0.16257 0.16257,0 0.16257,0.16257 z"
         id="path380" />
      <path
         d="m 135.73413,139.7081 q 0.0542,0.46063 0.0135,3.23795 -0.0406,2.76377 -0.0406,3.2515 0,0.16257 -0.16258,0.16257 -0.16257,0 -0.16257,-0.16257 0,-0.48773 0.0406,-3.2515 0.0406,-2.76377 -0.0135,-3.23795 0,-0.0677 0.0406,-0.10838 0.0542,-0.0542 0.12193,-0.0542 0.0677,0 0.10838,0.0542 0.0542,0.0406 0.0542,0.10838 z m -0.18968,-1.86961 q 0.16258,0 0.16258,0.16258 0,0.16257 -0.16258,0.16257 -0.16257,0 -0.16257,-0.16257 0,-0.16258 0.16257,-0.16258 z"
         id="path382" />
      <path
         d="m 137.27859,137.17464 v 8.99581 q 0,0.16257 -0.16257,0.16257 -0.16258,0 -0.16258,-0.16257 v -8.99581 q 0,-0.16257 0.16258,-0.16257 0.16257,0 0.16257,0.16257 z"
         id="path384" />
      <path
         d="m 141.64103,137.1069 q 0.0406,1.92381 0.0271,3.02119 0,1.08383 -0.0406,3.02118 -0.0271,1.9238 -0.0271,3.02118 0,0.16257 -0.16258,0.16257 -0.16257,0 -0.16257,-0.16257 v -0.23031 q -0.60966,0.69094 -1.51737,0.40643 -0.48772,-0.14902 -0.88061,-0.54191 -0.40644,-0.40644 -0.56901,-0.92126 -0.20322,-0.75868 -0.20322,-1.65284 0.0136,-0.89417 0.29805,-1.82897 0.28451,-0.93481 0.74514,-1.49027 0.39289,-0.47418 0.88061,-0.43353 0.41999,0.0271 0.81287,0.41998 0.28451,0.29806 0.50128,0.71804 0.0271,-2.00509 -0.0271,-3.50891 0,-0.0677 0.0406,-0.10838 0.0542,-0.0542 0.12194,-0.0542 0.0677,0 0.10838,0.0542 0.0542,0.0406 0.0542,0.10838 z m -0.32515,4.48436 q -0.0271,-0.32515 -0.23031,-0.74513 -0.18967,-0.43354 -0.47418,-0.71804 -0.3116,-0.29806 -0.59611,-0.32515 -0.32515,-0.0271 -0.6232,0.32515 -0.63675,0.75868 -0.86707,2.2354 -0.23031,1.46317 0.0813,2.41153 0.14903,0.44708 0.48773,0.79932 0.35224,0.3387 0.75868,0.46063 0.41998,0.13548 0.79932,-0.0135 0.37934,-0.16257 0.60966,-0.63675 0.0136,-0.0136 0.0136,-0.0271 0,-0.16258 0.0542,-3.71213 -0.0136,-0.0271 -0.0136,-0.0542 z"
         id="path386" />
      <path
         d="m 142.83324,141.86222 q 0.17612,0 1.36833,0.0406 0.78578,0.0271 1.28706,0 -0.0406,-0.75868 -0.18968,-1.2735 -0.23031,-0.86707 -0.74513,-0.93481 -0.51482,-0.0813 -0.92126,0.32515 -0.55546,0.54192 -0.78578,1.74768 z m 2.81796,0.35224 q -0.56901,0.0406 -1.44963,0.0136 -1.31414,-0.0406 -1.42252,-0.0406 -0.10839,0.81287 -0.0542,1.5851 0.0677,0.90771 0.50128,1.51737 0.43353,0.60965 0.98899,0.74513 0.54192,0.13548 0.94836,-0.21677 0.47417,-0.41998 0.5961,-1.36833 0.0271,-0.16258 0.17613,-0.13548 0.16257,0.0136 0.14902,0.16257 -0.13548,1.08383 -0.70449,1.58511 -0.54191,0.47417 -1.2464,0.29805 -0.66385,-0.17612 -1.16512,-0.86706 -0.50128,-0.69095 -0.56902,-1.69349 -0.0677,-1.07029 0.12194,-2.09993 0.25741,-1.3006 0.89416,-1.9238 0.51482,-0.50127 1.19221,-0.40644 0.70449,0.10839 1.00255,1.16512 0.17612,0.59611 0.20321,1.50382 0,0.0677 -0.0542,0.12193 -0.0406,0.0542 -0.10838,0.0542 z"
         id="path388" />
      <path
         d="m 147.23629,141.17127 q -0.0271,-0.0542 0,-0.12193 v -0.0135 -1.38189 q 0,-0.16257 0.16258,-0.16257 0.16257,0 0.16257,0.16257 v 0.63675 q 0.17613,-0.3116 0.3658,-0.51482 0.29805,-0.3116 0.63675,-0.3387 0.39289,-0.0406 0.77223,0.35225 0.3387,0.35224 0.43353,1.05674 0.0406,0.32514 0.0406,1.09738 0,0.16257 -0.16258,0.16257 -0.16257,0 -0.16257,-0.16257 0,-0.75869 -0.0406,-1.05674 -0.0813,-0.59611 -0.35224,-0.88061 -0.25741,-0.27096 -0.50128,-0.24387 -0.21676,0.0135 -0.43353,0.24387 -0.36579,0.37934 -0.59611,1.08383 v 5.1211 q 0,0.16258 -0.16257,0.16258 -0.16258,0 -0.16258,-0.16258 z"
         id="path390" />
    </g>
    <g
       aria-label="Basic"
       id="text236-20-3-5"
       style="font-size:13.5479px;line-height:1.25;font-family:'Isabelle Layne';-inkscape-font-specification:'Isabelle Layne';fill:#363636;stroke-width:0.264583">
      <path
         d="m 31.403754,137.24238 v 3.07538 q 1.165119,-0.32515 1.679939,-0.73159 0.447081,-0.37934 0.51482,-1.01609 0.06774,-0.6503 -0.352245,-1.05674 -0.311602,-0.2845 -0.934805,-0.32515 -0.379341,-0.0135 -0.907709,0.0542 z m 0,3.46827 v 5.27013 q 0.596107,0 1.016092,-0.0813 0.419985,-0.0948 0.826422,-0.35224 0.731587,-0.47418 1.02964,-1.39544 0.311602,-0.9348 0.08129,-1.82896 -0.243862,-0.93481 -1.002545,-1.40899 -0.745134,-0.48772 -1.937349,-0.20321 z m -0.243863,-3.76632 q 0.718039,-0.0948 1.16512,-0.0813 0.745134,0.0406 1.138023,0.40644 0.555464,0.54192 0.460629,1.32769 -0.08129,0.78578 -0.650299,1.23286 -0.352246,0.27096 -0.785778,0.47418 0.867065,0.0813 1.422529,0.60965 0.555464,0.52837 0.758683,1.3277 0.25741,0.989 -0.08129,2.01864 -0.338697,1.01609 -1.178667,1.558 -0.338698,0.21677 -0.745135,0.3387 -0.392889,0.10839 -0.690943,0.13548 -0.284505,0.0135 -0.758682,0.0135 -0.08129,0 -0.135479,-0.0677 -0.0271,-0.0406 -0.0271,-0.0948 0,-0.0542 0.0271,-0.0948 v -8.81968 q -0.04064,-0.0406 -0.05419,-0.0948 -0.0271,-0.16257 0.135479,-0.18967 z"
         style="font-weight:500;-inkscape-font-specification:'Isabelle Layne Medium'"
         id="path357" />
      <path
         d="m 36.159055,140.34485 q 0.230314,-0.51482 0.609656,-0.77223 0.379341,-0.25741 0.799326,-0.20322 0.406437,0.0406 0.731586,0.3658 0.338698,0.32515 0.487725,0.85352 0.06774,0.25741 0.06774,1.00254 0,0.74513 0,0.83997 0,0.6232 -0.01355,1.88316 -0.01355,1.25995 -0.01355,1.88316 0,0.16257 -0.176122,0.16257 -0.162575,0 -0.162575,-0.16257 v -0.58256 q -0.487725,0.77223 -1.287051,0.81287 -0.528368,0.0135 -0.975448,-0.32515 -0.447081,-0.35224 -0.6503,-1.00254 -0.216766,-0.74514 0.01355,-1.6393 0.230315,-0.89416 0.745135,-1.49027 0.569012,-0.66385 1.205763,-0.6232 0.555464,0.0271 1.002544,0.59611 0.0271,-0.88062 -0.09483,-1.27351 -0.121931,-0.43353 -0.379341,-0.69094 -0.25741,-0.25741 -0.555464,-0.28451 -0.284506,-0.0406 -0.569012,0.14903 -0.284506,0.18967 -0.487724,0.63675 -0.06774,0.14903 -0.230314,0.0813 -0.149027,-0.0677 -0.06774,-0.21677 z m 2.343787,2.15412 q -0.433533,-0.79933 -0.961901,-0.82642 -0.474177,-0.0271 -0.934805,0.50127 -0.474177,0.54192 -0.690943,1.35479 -0.203219,0.81287 0,1.49027 0.162575,0.52837 0.51482,0.81287 0.352245,0.27096 0.758682,0.25741 0.419985,-0.0271 0.772231,-0.35224 0.352245,-0.32515 0.528368,-0.92126 0.01355,-0.0271 0.0271,-0.0406 0.01355,-1.76123 0.01355,-2.24895 z"
         style="font-weight:500;-inkscape-font-specification:'Isabelle Layne Medium'"
         id="path359" />
      <path
         d="m 42.18786,140.29066 q -0.230314,-0.43353 -0.609655,-0.56901 -0.379341,-0.13548 -0.690943,0.0542 -0.352246,0.16258 -0.555464,0.52837 -0.203219,0.36579 -0.135479,0.81287 0.04064,0.29806 0.474176,0.63675 0.135479,0.12194 0.447081,0.35225 0.338698,0.23031 0.501272,0.36579 0.623204,0.48773 0.934806,1.09738 0.325149,0.60966 0.203218,1.49027 -0.121931,0.78578 -0.636751,1.16512 -0.51482,0.3658 -1.151572,0.27096 -0.623203,-0.0948 -1.070284,-0.56901 -0.447081,-0.48773 -0.447081,-1.20577 0,-0.16257 0.162575,-0.16257 0.162575,0 0.162575,0.16257 0,0.59611 0.365793,0.989 0.365794,0.39289 0.867066,0.47418 0.51482,0.0677 0.921257,-0.21677 0.406437,-0.2845 0.501272,-0.9619 0.121932,-0.77223 -0.162574,-1.3006 -0.284506,-0.52837 -0.853518,-0.97545 -0.162575,-0.13548 -0.487724,-0.37934 -0.32515,-0.21676 -0.474177,-0.3387 -0.51482,-0.43353 -0.58256,-0.85351 -0.08129,-0.55547 0.176123,-1.00255 0.25741,-0.46063 0.704491,-0.67739 0.433533,-0.24386 0.934805,-0.0677 0.501272,0.17612 0.799326,0.74513 0.06774,0.13548 -0.08129,0.21677 -0.135479,0.0677 -0.216767,-0.0813 z"
         style="font-weight:500;-inkscape-font-specification:'Isabelle Layne Medium'"
         id="path361" />
      <path
         d="m 44.260698,139.7081 q 0.05419,0.46063 0.01355,3.23795 -0.04064,2.76377 -0.04064,3.2515 0,0.16257 -0.162575,0.16257 -0.162575,0 -0.162575,-0.16257 0,-0.48773 0.04064,-3.2515 0.04064,-2.76377 -0.01355,-3.23795 0,-0.0677 0.04064,-0.10838 0.05419,-0.0542 0.121931,-0.0542 0.06774,0 0.108383,0.0542 0.05419,0.0406 0.05419,0.10838 z m -0.189671,-1.86961 q 0.162575,0 0.162575,0.16258 0,0.16257 -0.162575,0.16257 -0.162575,0 -0.162575,-0.16257 0,-0.16258 0.162575,-0.16258 z"
         style="font-weight:500;-inkscape-font-specification:'Isabelle Layne Medium'"
         id="path363" />
      <path
         d="m 48.148953,140.75129 q -0.379341,-0.93481 -0.799326,-1.11093 -0.325149,-0.12193 -0.690943,0.24386 -0.352245,0.35225 -0.636751,1.0161 -0.298054,0.6503 -0.406437,1.2735 -0.203219,1.09738 0,2.01864 0.162575,0.75868 0.609655,1.25995 0.447081,0.48773 0.961901,0.58256 0.501273,0.0813 0.867066,-0.25741 0.433533,-0.40644 0.541916,-1.3006 0.0271,-0.16257 0.176123,-0.13548 0.162574,0.0136 0.149027,0.16258 -0.121932,1.01609 -0.636752,1.50382 -0.487724,0.46062 -1.151571,0.33869 -0.623204,-0.10838 -1.151572,-0.67739 -0.51482,-0.56901 -0.690943,-1.42253 -0.203218,-0.97545 0,-2.12702 0.121931,-0.6503 0.433533,-1.35479 0.311602,-0.71804 0.704491,-1.11093 0.51482,-0.51482 1.043188,-0.3116 0.541916,0.21676 0.975449,1.3006 0.06774,0.14902 -0.09483,0.21676 -0.149027,0.0542 -0.203219,-0.10838 z"
         style="font-weight:500;-inkscape-font-specification:'Isabelle Layne Medium'"
         id="path365" />
    </g>
    <g
       aria-label="Dataview"
       transform="rotate(-3.1836181)"
       id="text425"
       style="font-size:16.6971px;line-height:1.25;font-family:Mistral;-inkscape-font-specification:Mistral;fill:#507192;stroke-width:0.264584">
      <path
         d="m 50.755922,147.31859 q 1.264209,-2.40916 1.46696,-4.57978 0.02385,-0.3578 0.02385,-0.53669 0,-0.62018 -0.143118,-1.09724 -0.178898,-0.64403 -0.632105,-1.1688 -0.44128,-0.52476 -1.073385,-0.82293 -0.632104,-0.31009 -1.335768,-0.31009 -1.15687,0 -2.254108,0.5367 -1.288062,0.64403 -2.003652,1.59815 -0.345869,0.46513 -0.465134,0.95412 -0.02385,0.11926 -0.02385,0.15504 0,0.22661 0.143118,0.39358 0.155045,0.16697 0.369722,0.19082 0.04771,-0.0954 0.107338,-0.23853 0.07156,-0.14312 0.119265,-0.21468 0.679811,-1.00182 1.741269,-1.57429 0.02385,-0.0119 0.04771,-0.0239 0.03578,-0.0119 0.08349,-0.0238 l -0.05963,0.16697 q -0.20275,0.4055 -0.322015,0.70366 -0.345869,0.84679 -0.739443,2.21833 -0.02385,0.0596 -0.08349,0.26239 -0.500913,1.75319 -0.799075,2.89814 -0.286236,1.14494 -0.453207,2.33759 -0.07156,0.57247 -0.07156,0.88256 0,0.50091 0.143118,0.91834 l -0.214677,0.25046 q -0.27431,0.35779 -0.333942,0.67981 -0.03578,0.11926 -0.03578,0.2266 0,0.32202 0.322016,0.52477 0.333942,0.26238 0.799075,0.26238 0.226604,0 0.417428,-0.0477 0.512839,-0.11927 1.180723,-0.60826 1.824755,-1.35962 3.208229,-3.4229 0.190824,-0.28624 0.488986,-0.39358 0.75137,-0.25045 1.932093,-0.67981 0.04771,-0.0119 0.155045,-0.0477 0.107338,-0.0477 0.20275,-0.0477 0.07156,0 0.107339,0.0119 h 0.01193 q 0.05963,0 0.08349,-0.0477 0.02385,-0.0477 -0.01193,-0.10734 -0.01193,-0.0716 -0.09541,-0.10734 -0.107338,-0.0954 -0.274309,-0.0954 -0.131192,0 -0.190824,0.0239 l -0.536693,0.17889 q -0.178897,0.0596 -0.453207,0.15505 -0.262383,0.0954 -0.620178,0.20275 -0.04771,0.0239 -0.107338,0.0477 -0.05963,0.0119 -0.143118,0.0477 z m -5.343072,2.88621 q 0.166971,-0.93027 0.262383,-1.3954 0.763296,-3.02933 1.777049,-5.7605 0.20275,-0.56055 0.345868,-1.01375 0.09541,-0.31009 0.23853,-0.73945 0.04771,-0.16697 0.05963,-0.27431 0.01193,-0.0596 0.01193,-0.15504 0,-0.13119 -0.05963,-0.2266 -0.05963,-0.0954 -0.202751,-0.1789 -0.107338,-0.0596 -0.381648,-0.19083 0.608252,-0.28623 1.156871,-0.38164 0.44128,-0.0954 0.846781,-0.0954 0.345869,0 0.632105,0.0835 0.345868,0.0716 0.488986,0.15504 0.155045,0.0716 0.226604,0.23853 0.08348,0.15505 0.143118,0.50092 0.04771,0.25045 0.04771,0.56054 0,0.36972 -0.119265,1.13302 -0.333942,1.70549 -1.323842,3.85226 -0.572472,1.31191 -1.228429,2.30181 -0.04771,0.0716 -0.107339,0.1312 -0.04771,0.0477 -0.131191,0.0835 -1.371548,0.57247 -2.552271,1.35962 -0.03578,0.0358 -0.08349,0.0358 z m 2.063285,-0.45321 q -1.180724,1.5743 -2.635757,2.37338 0.02385,-0.19083 0.08349,-0.31009 0.05963,-0.11927 0.20275,-0.28624 l 0.155045,0.0119 q 0.131191,0 0.178897,-0.0477 0.05963,-0.0477 0.05963,-0.1789 0,-0.0358 -0.02385,-0.2266 0.906414,-0.78715 1.979799,-1.33577 z"
         style="font-family:raustila;-inkscape-font-specification:raustila"
         id="path340" />
      <path
         d="m 55.216427,148.23693 q -0.01193,0.0358 -0.02385,0.0716 -0.01193,0.0358 -0.02385,0.0835 -0.560545,1.3954 -0.799075,2.48071 -0.131192,0.54862 -0.131192,0.88256 0,0.1312 0.01193,0.20275 0.05963,0.41743 0.20275,0.65596 0.107339,0.1789 0.298163,0.28624 0.20275,0.10734 0.417427,0.10734 0.107339,0 0.166971,-0.0119 0.23853,-0.0596 0.310089,-0.21468 0.178898,-0.27431 0.27431,-0.50091 0.119265,-0.27431 0.310089,-0.82293 l 0.405501,-0.95412 q 0.286236,-0.70366 0.512839,-1.22843 0.07156,-0.16697 0.71559,-1.4431 l 0.143118,-0.27431 q 0.02385,-0.0596 0.02385,-0.11927 0.01193,-0.0596 -0.01193,-0.0716 -0.09541,-0.0954 -0.202751,-0.0477 -0.04771,0.0119 -0.107338,0.0596 -0.04771,0.0477 -0.07156,0.0954 l -0.178898,0.32202 q -0.405501,0.72751 -0.524766,0.97797 -0.453207,0.96605 -1.335768,2.89814 l -0.131191,0.23853 v -0.0835 q 0,-0.11926 0.01193,-0.17889 0.03578,-0.10734 0.190824,-0.50092 0.155045,-0.4055 0.250457,-0.77522 0.322015,-1.03761 0.667884,-2.46879 0.08349,-0.33394 0.08349,-0.73944 0,-0.26238 -0.166971,-0.42935 -0.155044,-0.1789 -0.417427,-0.23853 h -0.07156 q -0.202751,0 -0.286236,0.14312 -0.03578,0.0596 -0.119265,0.14311 -0.07156,0.0716 -0.107339,0.11927 l -1.884387,2.37337 q -0.298162,0.4055 -0.811002,0.97797 -0.01193,0.0239 -0.07156,0.0596 -0.04771,0.0239 -0.09541,0.0596 0.04771,-0.20275 0.107339,-0.39357 0.548619,-1.94402 1.967872,-3.58988 0.345869,-0.42936 0.703664,-0.64403 0.20275,-0.11927 0.322015,-0.11927 0.08349,0 0.143118,0.0716 0.07156,0.0596 0.166971,0.20275 0.155045,0.20275 0.250457,0.25046 0.04771,0.0358 0.107338,0.0358 0.07156,0 0.107339,-0.0477 0.04771,-0.0596 0.04771,-0.15504 0.03578,-0.20275 -0.143118,-0.41743 -0.214677,-0.21468 -0.488987,-0.42935 -0.357795,-0.25046 -0.727516,-0.25046 -0.286236,0 -0.620178,0.16697 -0.500913,0.23853 -0.9899,0.83486 -0.870634,1.02567 -1.419253,2.13484 -0.262383,0.52477 -0.405501,0.9899 -0.155045,0.46513 -0.155045,0.94219 0,0.41743 0.131192,0.75137 0.155044,0.42936 0.71559,0.57247 0.04771,0.0119 0.131191,0.0119 0.262383,0 0.524766,-0.26238 0.250457,-0.27431 0.644031,-0.78715 0.333942,-0.44128 0.572472,-0.83486 l 0.214677,-0.32201 q 0.226604,-0.33394 0.441281,-0.62018 l 0.190824,-0.26238 z"
         style="font-family:raustila;-inkscape-font-specification:raustila"
         id="path342" />
      <path
         d="m 58.150337,145.18374 q -0.453207,1.43118 -0.834855,3.26786 -0.250456,1.38348 -0.226603,2.30182 0,0.5844 0.333942,1.10916 0.178897,0.28624 0.453207,0.45321 0.274309,0.16697 0.620178,0.16697 0.71559,0 1.180723,-0.45321 0.357795,-0.4055 0.465134,-0.5844 0.787149,-1.31191 1.347694,-3.02933 0.05963,-0.19082 0.286236,-0.811 l 0.04771,-0.20275 q -0.143118,-0.0477 -0.190824,-0.0477 -0.143118,0 -0.20275,0.17889 -0.166971,0.38165 -0.23853,0.57247 l -0.178898,0.41743 q -0.345868,0.69174 -1.037605,1.9798 -0.214677,0.42936 -0.572472,0.95412 -0.226604,0.3578 -0.500913,0.52477 -0.131192,-0.15505 -0.178898,-0.33394 -0.03578,-0.1789 -0.04771,-0.41743 -0.01193,-0.14312 -0.01193,-0.44128 0,-0.97798 0.190824,-2.08714 0.429354,-2.19448 1.19265,-4.09079 0.08349,-0.28624 0.381648,-0.29816 0.393574,-0.0119 1.180723,-0.0835 0.190824,-0.0239 0.23853,-0.0477 0.131192,-0.0358 0.202751,-0.0716 0.07156,-0.0477 0.08349,-0.14312 v -0.0358 q 0,-0.0716 -0.04771,-0.11927 -0.04771,-0.0596 -0.107338,-0.0835 -0.04771,-0.0358 -0.07156,-0.0477 -0.393575,-0.26238 -0.966047,-0.28623 H 60.55949 l 0.07156,-0.16697 q 0.07156,-0.22661 0.226604,-0.54862 0.04771,-0.10734 0.04771,-0.25046 0,-0.27431 -0.27431,-0.44128 -0.226603,-0.11926 -0.453207,-0.1789 -0.09541,-0.0238 -0.250456,-0.0238 -0.417428,0 -0.608252,0.45321 l -0.143118,0.32201 q -0.178897,0.42936 -0.333942,0.82293 -0.07156,0.21468 -0.298162,0.25046 -0.250457,0.0239 -0.75137,0.14312 -0.345868,0.0596 -0.834855,0.19082 -0.23853,0.0477 -0.23853,0.20275 0,0.0716 0.04771,0.15504 0.107339,0.21468 0.333942,0.41743 0.119265,0.11927 0.310089,0.11927 0.07156,0 0.107339,-0.0119 0.107338,-0.0119 0.262383,-0.0596 l 0.536692,-0.0954 z"
         style="font-family:raustila;-inkscape-font-specification:raustila"
         id="path344" />
      <path
         d="m 64.220934,148.23693 q -0.01193,0.0358 -0.02385,0.0716 -0.01193,0.0358 -0.02385,0.0835 -0.560545,1.3954 -0.799075,2.48071 -0.131192,0.54862 -0.131192,0.88256 0,0.1312 0.01193,0.20275 0.05963,0.41743 0.20275,0.65596 0.107339,0.1789 0.298163,0.28624 0.20275,0.10734 0.417427,0.10734 0.107339,0 0.166971,-0.0119 0.23853,-0.0596 0.310089,-0.21468 0.178898,-0.27431 0.27431,-0.50091 0.119265,-0.27431 0.310089,-0.82293 l 0.405501,-0.95412 q 0.286236,-0.70366 0.512839,-1.22843 0.07156,-0.16697 0.71559,-1.4431 l 0.143118,-0.27431 q 0.02385,-0.0596 0.02385,-0.11927 0.01193,-0.0596 -0.01193,-0.0716 -0.09541,-0.0954 -0.202751,-0.0477 -0.04771,0.0119 -0.107338,0.0596 -0.04771,0.0477 -0.07156,0.0954 l -0.178898,0.32202 q -0.405501,0.72751 -0.524766,0.97797 -0.453207,0.96605 -1.335768,2.89814 l -0.131191,0.23853 v -0.0835 q 0,-0.11926 0.01193,-0.17889 0.03578,-0.10734 0.190824,-0.50092 0.155045,-0.4055 0.250457,-0.77522 0.322015,-1.03761 0.667884,-2.46879 0.08348,-0.33394 0.08348,-0.73944 0,-0.26238 -0.166971,-0.42935 -0.155044,-0.1789 -0.417427,-0.23853 h -0.07156 q -0.202751,0 -0.286236,0.14312 -0.03578,0.0596 -0.119265,0.14311 -0.07156,0.0716 -0.107339,0.11927 l -1.884387,2.37337 q -0.298162,0.4055 -0.811002,0.97797 -0.01193,0.0239 -0.07156,0.0596 -0.04771,0.0239 -0.09541,0.0596 0.04771,-0.20275 0.107339,-0.39357 0.548619,-1.94402 1.967872,-3.58988 0.345869,-0.42936 0.703664,-0.64403 0.20275,-0.11927 0.322015,-0.11927 0.08349,0 0.143118,0.0716 0.07156,0.0596 0.166971,0.20275 0.155045,0.20275 0.250457,0.25046 0.04771,0.0358 0.107338,0.0358 0.07156,0 0.107339,-0.0477 0.04771,-0.0596 0.04771,-0.15504 0.03578,-0.20275 -0.143118,-0.41743 -0.214677,-0.21468 -0.488987,-0.42935 -0.357795,-0.25046 -0.727516,-0.25046 -0.286236,0 -0.620178,0.16697 -0.500913,0.23853 -0.9899,0.83486 -0.870634,1.02567 -1.419253,2.13484 -0.262383,0.52477 -0.405501,0.9899 -0.155045,0.46513 -0.155045,0.94219 0,0.41743 0.131192,0.75137 0.155044,0.42936 0.71559,0.57247 0.04771,0.0119 0.131191,0.0119 0.262383,0 0.524766,-0.26238 0.250457,-0.27431 0.644031,-0.78715 0.333942,-0.44128 0.572472,-0.83486 l 0.214677,-0.32201 q 0.226604,-0.33394 0.441281,-0.62018 l 0.190824,-0.26238 z"
         style="font-family:raustila;-inkscape-font-specification:raustila"
         id="path346" />
      <path
         d="m 68.216303,151.70754 q -0.226604,-0.20275 -0.27431,-0.59633 -0.08348,-0.52476 -0.08348,-0.88256 -0.04771,-0.9899 -0.119265,-2.92199 -0.01193,-0.32202 -0.04771,-0.70366 -0.03578,-0.38165 -0.04771,-0.51284 l -0.03578,-0.4055 q 0,-0.22661 -0.226603,-0.3578 -0.250457,-0.14312 -0.536693,-0.14312 -0.143118,0 -0.286236,0.0358 -0.286236,0.0358 -0.286236,0.33394 0,0.16697 -0.02385,0.57248 -0.02385,0.59632 -0.02385,0.90641 0,1.01375 0.03578,2.03943 0.01193,0.69174 0.250456,1.68164 0.07156,0.29816 0.214677,0.57247 0.226604,0.39357 0.596325,0.6321 0.369722,0.22661 0.787149,0.22661 0.286236,0 0.560546,-0.11927 0.286236,-0.13119 0.524766,-0.36972 0.369721,-0.39357 0.584398,-0.79907 0.405501,-0.78715 0.584399,-1.49082 0.04771,-0.13119 0.07156,-0.17889 h 0.166971 q 0.608251,0 1.085311,-0.39358 0.488987,-0.39357 1.168797,-1.25228 0.04771,-0.0477 0.04771,-0.0954 0,-0.0716 -0.131191,-0.0954 l -0.119265,-0.0239 q -0.04771,0 -0.08349,0.0358 -0.03578,0.0238 -0.07156,0.0835 -0.178897,0.31009 -0.512839,0.66788 -0.322016,0.34587 -0.727517,0.5844 -0.393574,0.2266 -0.775222,0.20275 0.04771,-0.16697 0.166971,-0.70366 0.131191,-0.66789 0.20275,-1.1688 0.07156,-0.50091 0.07156,-0.9899 0,-0.15504 -0.02385,-0.51284 -0.03578,-0.36972 -0.08348,-0.60825 -0.04771,-0.25046 -0.155045,-0.47706 -0.08349,-0.2266 -0.262383,-0.32202 -0.190824,-0.0954 -0.453207,-0.0954 -0.453207,0 -0.644031,0.32202 -0.250456,0.36972 -0.333942,0.71559 -0.214677,0.65595 -0.214677,1.37154 0,0.41743 0.07156,0.84679 0.09541,0.54861 0.286236,0.96604 0.202751,0.4055 0.584399,0.69174 l 0.03578,0.0477 q 0.01193,-0.0358 -0.131191,0.46513 -0.262383,0.83485 -0.632105,1.45503 -0.333942,0.48899 -0.751369,0.7633 z m 1.800901,-7.1082 q 0.190824,0.27431 0.226604,0.70367 0.07156,0.4055 0.07156,0.82293 0,0.66788 -0.166971,1.37154 -0.05963,0.20275 -0.23853,0.89449 -0.190824,-0.28624 -0.298163,-0.75137 -0.09541,-0.46513 -0.09541,-1.00182 0,-0.63211 0.131192,-1.19265 0.131191,-0.56055 0.369721,-0.84679 z"
         style="font-family:raustila;-inkscape-font-specification:raustila"
         id="path348" />
      <path
         d="m 73.392409,143.94339 q 0,0.53669 0.47706,0.8587 0.202751,0.11927 0.393575,0.11927 0.04771,0 0.143118,-0.0238 0.190824,-0.0716 0.131191,-0.1789 -0.04771,-0.10734 -0.04771,-0.23853 0,-0.1789 0.07156,-0.33394 0.107339,-0.31009 0.298163,-0.7633 0.03578,-0.0716 0.03578,-0.14312 0,-0.0716 -0.08349,-0.14312 -0.190824,-0.17889 -0.536693,-0.17889 -0.178897,0 -0.333942,0.0596 -0.155044,0.0596 -0.250456,0.1789 -0.27431,0.32201 -0.298163,0.78715 z m -0.02385,8.00268 q -0.01193,0 -0.02385,-0.0119 -0.01193,-0.0119 -0.03578,-0.0119 0,-0.0716 -0.01193,-0.14311 -0.01193,-0.0716 -0.01193,-0.15505 0,-0.60825 0.190824,-1.53852 l 0.09541,-0.4532 q 0.298162,-1.44311 0.572472,-2.61191 0.07156,-0.4532 0.07156,-0.67981 0,-0.2266 -0.02385,-0.34587 -0.01193,-0.0239 -0.03578,-0.0954 -0.02385,-0.0835 -0.07156,-0.11926 -0.08349,-0.0954 -0.274309,-0.15505 -0.178898,-0.0596 -0.369722,-0.0596 -0.190824,0 -0.322015,0.0716 -0.143118,0.11926 -0.178898,0.19082 -0.03578,0.0835 -0.166971,0.36972 -0.131191,0.27431 -0.20275,0.5367 -0.357795,1.55044 -0.596325,2.76695 -0.07156,0.36972 -0.07156,0.73944 0,0.79907 0.322015,1.5743 0.131192,0.31009 0.393575,0.47706 0.262383,0.16697 0.572472,0.16697 0.226603,0 0.429354,-0.0954 0.214677,-0.0954 0.369721,-0.27431 0.357795,-0.45321 0.632105,-1.02568 l 0.429354,-1.00183 q 0.155044,-0.35779 0.47706,-1.10916 0.322015,-0.75137 0.560545,-1.33577 0.01193,-0.0358 0.03578,-0.0716 0.02385,-0.0477 0.03578,-0.10734 0.01193,-0.0239 0.01193,-0.0716 0,-0.0477 -0.03578,-0.0716 -0.02385,-0.0238 -0.107338,-0.0477 h -0.07156 q -0.08349,0 -0.131192,0.0477 -0.03578,0.0358 -0.09541,0.15505 -0.834855,1.88438 -1.276135,2.80272 -0.131192,0.28624 -0.322016,0.62018 -0.190824,0.32202 -0.381648,0.62018 -0.05963,0.10734 -0.190824,0.25046 -0.119265,0.13119 -0.190824,0.20275 z"
         style="font-family:raustila;-inkscape-font-specification:raustila"
         id="path350" />
      <path
         d="m 77.041929,147.70023 q 0.143118,-0.0358 0.345869,-0.0596 1.347694,-0.2266 2.254108,-1.27613 0.20275,-0.19083 0.286236,-0.5367 0.03578,-0.10734 0.03578,-0.20275 0,-0.2266 -0.155044,-0.39357 -0.27431,-0.38165 -0.834855,-0.46514 -0.119265,-0.0239 -0.345869,-0.0239 -0.572471,0 -1.037605,0.32202 -0.369721,0.25045 -0.870634,0.70366 -1.025679,0.94219 -1.311915,2.26604 -0.07156,0.28623 -0.07156,0.57247 0,0.60825 0.298162,1.13302 0.226604,0.42935 0.620178,0.66788 0.405501,0.2266 0.870635,0.2266 0.536692,0 0.977973,-0.29816 0.739442,-0.39357 1.288061,-1.02568 0.548619,-0.6321 1.240356,-1.622 0.02385,-0.0477 0.02385,-0.11927 0,-0.13119 -0.107338,-0.13119 -0.09541,0 -0.190824,0.13119 -0.703664,0.9899 -1.681637,1.84861 -0.966046,0.85871 -1.490812,0.85871 -0.23853,0 -0.345868,-0.20275 -0.119265,-0.19083 -0.131192,-0.38165 -0.01193,-0.10734 -0.01193,-0.32202 0,-0.75137 0.345868,-1.66971 z m 0.333942,-0.76329 q 0.429354,-0.79908 1.061458,-1.33577 0.226604,-0.1789 0.536693,-0.32202 0.07156,-0.0358 0.143118,-0.0358 0.190824,0 0.226603,0.25046 0.01193,0.0596 0.01193,0.15505 0,0.2266 -0.143118,0.42935 -0.310089,0.39357 -0.524766,0.56055 -0.286236,0.23853 -0.655957,0.39357 -0.357795,0.14312 -0.846782,0.27431 z"
         style="font-family:raustila;-inkscape-font-specification:raustila"
         id="path352" />
      <path
         d="m 81.764817,150.70571 q -0.166971,-0.25045 -0.190824,-0.70366 -0.01193,-0.19083 -0.01193,-0.56055 0,-1.19265 0.262383,-2.46878 0.04771,-0.26239 0.09541,-0.45321 0.04771,-0.20275 0.08349,-0.33394 0.08349,-0.32202 0.131192,-0.54862 0.03578,-0.10734 0.03578,-0.19082 0,-0.10734 -0.05963,-0.1789 -0.05963,-0.0835 -0.202751,-0.15505 -0.298162,-0.13119 -0.655957,-0.13119 l -0.202751,0.0119 q -0.345868,0.0596 -0.465133,0.36972 l -0.09541,0.32202 q -0.250457,0.89448 -0.417428,2.21832 -0.07156,0.59633 -0.07156,0.89449 0,0.3578 0.07156,0.73944 0.08349,0.36973 0.202751,0.65596 0.107338,0.28624 0.310089,0.53669 0.20275,0.22661 0.488986,0.3578 0.286236,0.11926 0.584399,0.11926 0.560545,0 0.91834,-0.36972 0.27431,-0.27431 0.47706,-0.60825 0.07156,-0.0954 0.250457,-0.4055 l 0.155044,-0.26238 q 0.01193,0.0835 0.02385,0.15504 0.01193,0.0596 0.02385,0.10734 0.04771,0.46513 0.322016,0.9899 0.20275,0.38165 0.596325,0.52477 0.23853,0.0835 0.47706,0.0835 0.310089,0 0.620178,-0.14312 0.369721,-0.16697 0.572472,-0.58439 0.190824,-0.39358 0.357795,-0.78715 0.23853,-0.5367 0.298162,-0.65596 0.04771,-0.0954 0.07156,-0.1789 0.03578,-0.0954 0.05963,-0.15504 0.429354,0.0477 0.763296,-0.14312 0.333942,-0.19083 0.620178,-0.57247 l 0.214677,-0.27431 0.214677,-0.26239 q 0.07156,-0.0716 0.143118,-0.19082 -0.131192,-0.0954 -0.23853,-0.0954 -0.107339,0 -0.250457,0.11926 -0.405501,0.47706 -0.620178,0.69174 -0.107338,0.10734 -0.500913,0.41743 -0.07156,0.0477 -0.131191,0.0477 -0.05963,0 -0.119265,-0.0477 0.07156,-0.21468 0.07156,-0.21468 0.405501,-1.37155 0.536692,-2.2064 0.04771,-0.3578 0.04771,-0.54862 0,-0.32202 -0.107338,-0.62018 -0.04771,-0.15504 -0.143118,-0.2266 -0.08349,-0.0716 -0.250457,-0.0954 -0.47706,-0.0239 -0.703663,0.36972 -0.23853,0.48898 -0.369722,0.82293 -0.166971,0.58439 -0.166971,1.51466 0.02385,0.36972 0.09541,0.65596 0.07156,0.27431 0.23853,0.51284 0.02385,0.0238 0.02385,0.0835 0,0.0596 -0.03578,0.1312 -0.07156,0.14311 -0.190824,0.4532 -0.03578,0.0954 -0.09541,0.23853 -0.05963,0.14312 -0.155045,0.33394 -0.08348,0.16698 -0.20275,0.36973 -0.119265,0.19082 -0.166971,0.28623 l -0.143118,0.22661 q -0.03578,0.0596 -0.214677,0.21467 -0.226604,-0.1789 -0.286236,-0.46513 -0.131192,-0.52477 -0.131192,-0.87064 -0.01193,-0.26238 -0.01193,-0.77522 0,-0.52476 0.01193,-0.77522 0,-0.21468 0.02385,-0.69174 l 0.03578,-0.75137 q 0,-0.25045 -0.09541,-0.33394 -0.09541,-0.0954 -0.345869,-0.0954 -0.155044,0 -0.286236,0.0477 -0.20275,0.0596 -0.23853,0.25046 -0.02385,0.0954 -0.04771,0.19083 -0.01193,0.0835 -0.03578,0.17889 l -0.03578,0.28624 q -0.04771,0.38165 -0.107338,0.56054 -0.202751,0.60826 -0.584399,1.47889 -0.23853,0.42935 -0.500913,0.85871 l -0.190824,0.31009 q -0.190824,0.28623 -0.453207,0.39357 z m 4.818306,-3.44676 q 0,-1.24035 0.381648,-2.06328 0.03578,0.10734 0.03578,0.35779 0,0.46514 -0.131192,1.13302 -0.131191,0.65596 -0.286236,0.93027 z"
         style="font-family:raustila;-inkscape-font-specification:raustila"
         id="path354" />
    </g>
  </g>
</svg>
